<svg xmlns="http://www.w3.org/2000/svg" viewBox="0 0 24 24">
  <style>
    use:not(:target) {
      display: none;
    }
  </style>

  <symbol id="_reference">
    <path d="M0 0h24v24H0z" fill="none"/>
    <path d="M3.9 12c0-1.71 1.39-3.1 3.1-3.1h4V7H7c-2.76 0-5 2.24-5 5s2.24 5 5 5h4v-1.9H7c-1.71 0-3.1-1.39-3.1-3.1zM8 13h8v-2H8v2zm9-6h-4v1.9h4c1.71 0 3.1 1.39 3.1 3.1s-1.39 3.1-3.1 3.1h-4V17h4c2.76 0 5-2.24 5-5s-2.24-5-5-5z"/>
  </symbol>
  <use id="reference" href="#_reference" fill="hsla(0, 0%, 0%, 0.4)"/>

  <symbol id="_tag">
    <path d="M0 0h24v24H0z" fill="none"/>
    <path d="M17.63 5.84C17.27 5.33 16.67 5 16 5L5 5.01C3.9 5.01 3 5.9 3 7v10c0 1.1.9 1.99 2 1.99L16 19c.67 0 1.27-.33 1.63-.84L22 12l-4.37-6.16z"/>
  </symbol>
  <use id="tag" href="#_tag" fill="hsla(0, 0%, 0%, 0.4)"/>

  <symbol id="_back">
    <path d="M0 0h24v24H0z" fill="none"/>
    <path d="M11.67 3.87L9.9 2.1 0 12l9.9 9.9 1.77-1.77L3.54 12z"/>
  </symbol>
  <use id="back" href="#_back" fill="hsla(0, 0%, 0%, 0.4)"/>

  <symbol id="_year">
    <path d="M0 0h24v24H0z" fill="none"/>
    <path d="M9 11H7v2h2v-2zm4 0h-2v2h2v-2zm4 0h-2v2h2v-2zm2-7h-1V2h-2v2H8V2H6v2H5c-1.11 0-1.99.9-1.99 2L3 20c0 1.1.89 2 2 2h14c1.1 0 2-.9 2-2V6c0-1.1-.9-2-2-2zm0 16H5V9h14v11z"/>
  </symbol>
  <use id="year" href="#_year" fill="hsla(0, 0%, 0%, 0.4)"/>
</svg>
